<svg width="112" height="28" viewBox="0 0 112 28" fill="none" xmlns="http://www.w3.org/2000/svg">
<path fill-rule="evenodd" clip-rule="evenodd" d="M41.7388 6.09375H35.5616C35.1391 6.09348 34.7793 6.4008 34.7135 6.81814L32.2152 22.658C32.1919 22.8068 32.235 22.9582 32.3329 23.0725C32.4309 23.1869 32.574 23.2526 32.7246 23.2523H35.6736C36.0964 23.2525 36.4563 22.9447 36.5217 22.527L37.1955 18.2548C37.2609 17.8374 37.6203 17.5297 38.0428 17.5295H39.9983C44.0673 17.5295 46.4157 15.5605 47.029 11.6585C47.3054 9.95143 47.0407 8.61014 46.2414 7.67078C45.3634 6.6393 43.8063 6.09375 41.7388 6.09375ZM42.4514 11.8789C42.1136 14.0954 40.4201 14.0954 38.7825 14.0954H37.8504L38.5043 9.95594C38.5439 9.70575 38.7595 9.5215 39.0128 9.52149H39.4401C40.5555 9.52149 41.6078 9.52149 42.1515 10.1574C42.4758 10.5367 42.5752 11.1003 42.4514 11.8789ZM57.2454 11.8076H60.2034C60.3537 11.8075 60.4965 11.8734 60.594 11.9877C60.6915 12.1021 60.7339 12.2535 60.7101 12.4019L59.1114 22.5261C59.046 22.9438 58.6861 23.2516 58.2633 23.2514H55.5988C55.4482 23.2512 55.3052 23.185 55.2076 23.0704C55.1099 22.9557 55.0674 22.804 55.0912 22.6553L55.223 21.8334C55.223 21.8334 53.7625 23.5269 51.1287 23.5269C49.5941 23.5269 48.3043 23.0843 47.4029 22.0221C46.4202 20.8669 46.0183 19.2104 46.301 17.478C46.8447 14.0051 49.6366 11.5294 52.9054 11.5294C54.3306 11.5294 55.7586 11.8401 56.399 12.7695L56.6059 13.0694L56.7368 12.242C56.7764 11.9918 56.9921 11.8076 57.2454 11.8076ZM56.0802 17.5647C55.7948 19.2547 54.4535 20.3891 52.7428 20.3891C51.8838 20.3891 51.1974 20.1136 50.7566 19.5916C50.3194 19.0731 50.1532 18.3352 50.2923 17.5132C50.5588 15.8378 51.9226 14.6663 53.6072 14.6663C54.4472 14.6663 55.13 14.9454 55.5798 15.4719C56.0305 16.0039 56.2094 16.7464 56.0802 17.5647ZM72.985 11.8076H75.9575C76.149 11.8076 76.3247 11.9141 76.4135 12.0838C76.5022 12.2536 76.4894 12.4586 76.3802 12.6159L66.4935 26.8869C66.3331 27.1181 66.0694 27.2558 65.7881 27.2554H62.8192C62.6265 27.2555 62.45 27.148 62.3615 26.9769C62.2731 26.8058 62.2876 26.5996 62.3992 26.4425L65.4774 22.0971L62.2032 12.4886C62.1495 12.3311 62.1751 12.1574 62.2721 12.0223C62.3691 11.8871 62.5254 11.8071 62.6918 11.8076H65.6128C65.9924 11.8077 66.3271 12.0565 66.4366 12.4199L68.1744 18.2232L72.2741 12.1842C72.4343 11.949 72.7004 11.808 72.985 11.8076Z" fill="#151515"/>
<path fill-rule="evenodd" clip-rule="evenodd" d="M105.215 22.6589L107.751 6.5291C107.79 6.27909 108.005 6.09465 108.258 6.09375H111.112C111.263 6.09402 111.406 6.16006 111.503 6.27452C111.601 6.38897 111.643 6.54039 111.62 6.68898L109.12 22.5279C109.055 22.9461 108.695 23.2532 108.272 23.2532H105.723C105.572 23.2532 105.43 23.1874 105.332 23.0731C105.234 22.9588 105.192 22.8074 105.215 22.6589ZM85.7995 6.09465H79.6214C79.1993 6.09483 78.8399 6.40204 78.7742 6.81904L76.2759 22.6589C76.2523 22.8074 76.295 22.9588 76.3927 23.0731C76.4903 23.1874 76.6331 23.2532 76.7835 23.2532H79.9538C80.2493 23.2528 80.5005 23.0375 80.5463 22.7456L81.2553 18.2557C81.3207 17.8383 81.6801 17.5306 82.1026 17.5304H84.0572C88.1271 17.5304 90.4746 15.5614 91.0888 11.6594C91.3661 9.95233 91.0996 8.61104 90.3002 7.67169C89.4232 6.6402 87.867 6.09465 85.7995 6.09465ZM86.5121 11.8798C86.1752 14.0963 84.4817 14.0963 82.8432 14.0963H81.912L82.5668 9.95685C82.6056 9.7066 82.8212 9.52208 83.0744 9.5224H83.5017C84.6162 9.5224 85.6694 9.5224 86.2132 10.1583C86.5374 10.5376 86.6359 11.1012 86.5121 11.8798ZM101.307 11.8085H104.263C104.414 11.8083 104.557 11.874 104.655 11.9882C104.753 12.1025 104.796 12.2539 104.774 12.4028L103.174 22.527C103.109 22.9444 102.749 23.2521 102.327 23.2523H99.6631C99.5122 23.2526 99.3687 23.1867 99.2707 23.072C99.1726 22.9572 99.1298 22.8052 99.1537 22.6562L99.2855 21.8343C99.2855 21.8343 97.825 23.5278 95.1912 23.5278C93.6566 23.5278 92.3686 23.0852 91.4654 22.023C90.4827 20.8678 90.0826 19.2113 90.3644 17.4789C90.9081 14.006 93.6991 11.5303 96.9679 11.5303C98.3932 11.5303 99.8202 11.841 100.461 12.7704L100.668 13.0703L100.799 12.2429C100.838 11.9925 101.054 11.8078 101.307 11.8085ZM100.14 17.5656C99.8564 19.2556 98.5133 20.39 96.8026 20.39C95.9454 20.39 95.2572 20.1145 94.8164 19.5925C94.3792 19.074 94.2148 18.3361 94.3521 17.5141C94.6204 15.8387 95.9824 14.6672 97.667 14.6672C98.507 14.6672 99.1898 14.9463 99.6396 15.4728C100.092 16.0048 100.271 16.7473 100.14 17.5656Z" fill="#151515"/>
<path d="M6.5635 26.3296L7.03589 23.3291L5.98363 23.3047H0.958984L4.45086 1.16394C4.47234 1.02412 4.59301 0.921133 4.73447 0.921879H13.2067C16.0194 0.921879 17.9604 1.50717 18.9738 2.6624C19.4489 3.20433 19.7515 3.77065 19.8978 4.39388C20.0514 5.04781 20.0541 5.8291 19.9041 6.78201L19.8933 6.85156V7.46214L20.3684 7.7313C20.7311 7.91505 21.0571 8.16362 21.3303 8.46472C21.7368 8.92807 21.9996 9.51698 22.1107 10.2152C22.2254 10.9332 22.1875 11.7877 21.9996 12.755C21.7829 13.8678 21.4324 14.837 20.9591 15.63C20.5415 16.3404 19.9801 16.9557 19.3107 17.4365C18.6821 17.8827 17.9351 18.2214 17.0906 18.4381C16.2723 18.6513 15.3392 18.7588 14.3159 18.7588H13.6565C13.185 18.7588 12.7271 18.9286 12.3676 19.233C12.0087 19.5406 11.7705 19.9657 11.6956 20.4325L11.646 20.7025L10.8114 25.9909L10.7734 26.1851C10.7635 26.2465 10.7463 26.2772 10.721 26.298C10.6966 26.318 10.666 26.3292 10.6343 26.3296H6.5635Z" fill="#253B80"/>
<path d="M20.8179 6.92188C20.7926 7.08355 20.7637 7.24884 20.7312 7.41865C19.6139 13.155 15.7915 15.1367 10.9095 15.1367H8.42385C7.82682 15.1367 7.32372 15.5703 7.23069 16.1592L5.95805 24.2304L5.59766 26.5183C5.5686 26.7019 5.6214 26.8891 5.74213 27.0305C5.86287 27.1719 6.03946 27.2534 6.2254 27.2535H10.634C11.1561 27.2535 11.5996 26.8741 11.6818 26.3593L11.7251 26.1353L12.5552 20.8677L12.6085 20.5786C12.6898 20.062 13.1342 19.6826 13.6562 19.6826H14.3156C18.5869 19.6826 21.9307 17.9485 22.908 12.9301C23.3162 10.8337 23.1049 9.08329 22.0246 7.8522C21.6822 7.47136 21.2733 7.15611 20.8179 6.92188V6.92188Z" fill="#636363"/>
<path d="M19.6489 6.45604C19.2922 6.35284 18.9293 6.27229 18.5623 6.21488C17.8373 6.10346 17.1046 6.05 16.3711 6.05501H9.7306C9.20842 6.05461 8.76396 6.43503 8.68376 6.95101L7.27111 15.8984L7.23047 16.1594C7.3214 15.5708 7.8281 15.1366 8.42363 15.1369H10.9093C15.7912 15.1369 19.6137 13.1544 20.731 7.41888C20.7644 7.24907 20.7924 7.08378 20.8177 6.92211C20.5229 6.7675 20.2156 6.63788 19.8991 6.53462C19.8161 6.50709 19.7327 6.48089 19.6489 6.45604Z" fill="#393939"/>
<path d="M8.68354 6.95394C8.76306 6.43772 9.20807 6.05722 9.73038 6.05884H16.3709C17.1576 6.05884 17.8919 6.11032 18.5621 6.21871C19.0156 6.28999 19.4629 6.39659 19.8998 6.53755C20.2295 6.64684 20.5357 6.776 20.8184 6.92503C21.1508 4.80516 20.8157 3.36181 19.6695 2.05484C18.4059 0.616 16.1252 0 13.2069 0H4.73463C4.1385 0 3.62999 0.433548 3.53786 1.02335L0.00895592 23.3917C-0.0243085 23.6019 0.0360432 23.8161 0.174135 23.978C0.312228 24.1399 0.514235 24.2333 0.72702 24.2335H5.9576L7.27089 15.9013L8.68354 6.95394Z" fill="#151515"/>
</svg>
