<svg width="80" height="27" viewBox="0 0 80 27" fill="none" xmlns="http://www.w3.org/2000/svg">
<path d="M34.5862 25.6636H28.1504L32.1758 0.773438H38.6113L34.5862 25.6636Z" fill="#151515"/>
<path d="M57.915 1.37998C56.6456 0.876367 54.6322 0.320312 52.1426 0.320312C45.7871 0.320312 41.3115 3.70943 41.2841 8.55485C41.2313 12.1298 44.4884 14.1154 46.9245 15.3074C49.4144 16.5254 50.2608 17.3205 50.2608 18.4062C50.2355 20.0736 48.2488 20.8423 46.3959 20.8423C43.8264 20.8423 42.4497 20.446 40.3574 19.5183L39.51 19.1206L38.6094 24.7079C40.1188 25.3956 42.8998 26.0058 45.7871 26.0326C52.54 26.0326 56.9363 22.6959 56.9884 17.5323C57.0141 14.6989 55.2942 12.5278 51.5862 10.7537C49.3353 9.61488 47.9567 8.84696 47.9567 7.68171C47.9831 6.62239 49.1227 5.53737 51.6636 5.53737C53.7559 5.48423 55.2931 5.98715 56.4577 6.49041L57.0398 6.75471L57.915 1.37998Z" fill="#151515"/>
<path fill-rule="evenodd" clip-rule="evenodd" d="M69.4351 0.773438H74.4132L79.6052 25.6632H73.6463C73.6463 25.6632 73.0632 22.8034 72.8784 21.9296H64.6153C64.3764 22.5912 63.2646 25.6632 63.2646 25.6632H56.5117L66.0713 2.83858C66.7336 1.22321 67.8999 0.773438 69.4351 0.773438ZM69.0384 9.88183C69.0384 9.88183 66.999 15.416 66.469 16.8459H71.8184C71.5537 15.6015 70.335 9.64357 70.335 9.64357L69.8852 7.49889C69.6958 8.05116 69.4219 8.81046 69.2371 9.32258C69.1119 9.66973 69.0276 9.9033 69.0384 9.88183Z" fill="#151515"/>
<path d="M22.7742 0.773438L16.4714 17.7461L15.7827 14.3039C14.6174 10.332 10.963 6.01654 6.88477 3.8708L12.6579 25.6372H19.4636L29.5795 0.773438H22.7742V0.773438Z" fill="#151515"/>
<path d="M10.6187 0.773438H0.264135L0.158203 1.27635C8.23543 3.34185 13.5848 8.32065 15.7826 14.3049L13.5317 2.86568C13.1611 1.276 12.0222 0.825876 10.6187 0.773438Z" fill="#151515"/>
</svg>
